<svg
   viewBox="0 0 128 128"
   version="1.1"
   id="svg108"
   xmlns="http://www.w3.org/2000/svg">
  <defs
     id="defs112" />
  <path
     d="m 75.462509,0.86699663 c -0.921115,0 -1.776426,0.19738547 -2.565949,0.46055287 1.677728,1.1184851 2.598828,2.598847 3.059393,4.2765738 0.03304,0.2302733 0.09864,0.3947647 0.131672,0.62503 0.03304,0.1973871 0.06576,0.3947647 0.06576,0.5921502 0.131672,2.8949022 -0.756645,3.2567655 -1.381665,4.9673955 -0.954026,2.204087 -0.690857,4.572647 0.460533,6.480659 0.09864,0.230275 0.230291,0.493444 0.394778,0.723719 C 74.376939,10.670213 81.318159,9.4201378 82.60111,6.8213035 82.69974,4.5514265 80.8247,3.0381784 79.344352,1.9854816 77.929793,1.1301704 76.64681,0.86699663 75.462541,0.86699663 Z M 85.923655,2.7421089 c -0.131671,0.7566224 -0.03288,0.5592433 -0.06576,0.9540064 -0.03288,0.263169 -0.03288,0.5921438 -0.06576,0.8553112 -0.06576,0.2631754 -0.131671,0.5263429 -0.23029,0.7895294 -0.06576,0.2631674 -0.164487,0.5263412 -0.263169,0.7895086 -0.131672,0.2631865 -0.230275,0.4934535 -0.361868,0.7566273 -0.09864,0.1316401 -0.16447,0.263169 -0.263169,0.3947646 -0.06576,0.098682 -0.131672,0.1973792 -0.197365,0.296068 -0.164486,0.230286 -0.328989,0.4605545 -0.493459,0.6579321 -0.197381,0.1973855 -0.361866,0.4276524 -0.592157,0.5921502 v 0.032942 c -0.197381,0.1644851 -0.394761,0.3618642 -0.62502,0.5263429 -0.690841,0.526341 -1.480348,0.9211064 -2.204083,1.4145594 -0.230275,0.164479 -0.460565,0.296076 -0.65793,0.493453 -0.230275,0.164479 -0.427656,0.328958 -0.625037,0.526342 -0.23029,0.197379 -0.394761,0.394764 -0.592158,0.625044 -0.16447,0.197386 -0.361851,0.427652 -0.493428,0.657938 -0.164502,0.230267 -0.328973,0.460547 -0.460565,0.69082 -0.131672,0.263168 -0.230275,0.493454 -0.361868,0.756621 -0.09864,0.263168 -0.197381,0.493455 -0.263169,0.756621 -0.09864,0.296076 -0.164486,0.55925 -0.230275,0.82243 -0.03288,0.13164 -0.03288,0.296063 -0.06576,0.427652 -0.03304,0.131641 -0.03304,0.263168 -0.06576,0.394765 0,0.263168 -0.03288,0.559243 -0.03288,0.822411 0,0.197384 0,0.394763 0.03288,0.592148 0,0.263162 0.03288,0.526331 0.09863,0.82241 0.03288,0.263169 0.09864,0.526338 0.164503,0.789523 0.09863,0.263169 0.16447,0.526338 0.263153,0.789507 0.06576,0.164502 0.164486,0.328973 0.23029,0.460549 l -7.56624,-2.927793 c -1.282983,-0.361862 -2.53304,-0.69082 -3.816023,-0.986894 -0.690824,-0.164479 -1.381649,-0.328968 -2.07249,-0.493453 -1.973807,-0.394759 -3.980493,-0.69082 -5.987194,-0.888199 -0.06576,0 -0.09863,-0.03294 -0.164487,-0.03294 -1.973807,-0.197379 -3.914705,-0.29607 -5.888496,-0.29607 -1.44747,0 -2.894939,0.06574 -4.309498,0.164479 -2.006686,0.13164 -4.013403,0.394765 -6.020089,0.72372 -0.493444,0.06574 -0.986904,0.164498 -1.480364,0.263188 -1.019782,0.197365 -2.006685,0.427651 -2.960679,0.657931 -0.49346,0.13164 -0.98692,0.263175 -1.480364,0.394752 -0.493444,0.197379 -0.953993,0.427665 -1.414559,0.625044 -0.361867,0.164468 -0.723719,0.328954 -1.085586,0.493457 -0.06576,0.03288 -0.131672,0.03288 -0.164487,0.06576 -0.328973,0.164471 -0.625036,0.296048 -0.921099,0.46055 -0.09864,0.03288 -0.164503,0.06576 -0.230291,0.09863 -0.361851,0.164486 -0.723719,0.361867 -1.019782,0.526354 -0.230291,0.09864 -0.46055,0.230275 -0.65793,0.328973 -0.09864,0.06576 -0.230291,0.131672 -0.29608,0.164471 -0.296079,0.164486 -0.592142,0.328957 -0.855311,0.49346 -0.296079,0.16447 -0.559248,0.328957 -0.789539,0.493428 -0.230259,0.164502 -0.460549,0.296079 -0.65793,0.460549 -0.03288,0.03304 -0.06576,0.03304 -0.09863,0.06576 -0.197381,0.131672 -0.427656,0.296063 -0.625036,0.460566 0,0 -0.03304,0.03288 -0.06576,0.06576 -0.164486,0.131672 -0.328973,0.263169 -0.49346,0.394746 -0.06576,0.03288 -0.131672,0.09863 -0.19738,0.131672 -0.164471,0.131671 -0.328958,0.296079 -0.493428,0.427671 -0.03288,0.06576 -0.09863,0.09864 -0.131672,0.131672 -0.197381,0.197381 -0.394778,0.361851 -0.592158,0.559232 -0.03288,0 -0.03288,0.03288 -0.06576,0.06576 -0.197381,0.164486 -0.394761,0.361867 -0.592142,0.559248 -0.03288,0.03288 -0.03288,0.06576 -0.06576,0.06576 -0.16447,0.164487 -0.328957,0.328973 -0.493459,0.526338 -0.06576,0.06576 -0.164471,0.131672 -0.23026,0.197381 -0.164486,0.197381 -0.361867,0.394762 -0.559248,0.592158 -0.03288,0.06576 -0.09863,0.09863 -0.131671,0.164471 -0.263169,0.263185 -0.493444,0.526354 -0.756613,0.789523 -0.03304,0.03288 -0.06576,0.06576 -0.09863,0.09864 -0.526354,0.559232 -1.085602,1.11848 -1.677729,1.61194 -0.592142,0.526338 -1.217178,1.019782 -1.842215,1.447437 -0.657946,0.460566 -1.282966,0.855312 -1.973807,1.250089 -0.65793,0.361836 -1.348771,0.690825 -2.072493,0.986904 -0.690836,0.296063 -1.414556,0.559248 -2.13828,0.789507 -1.381671,0.296063 -2.7962288,0.855311 -4.0134058,0.954009 -0.2631706,0 -0.5592433,0.06576 -0.8224139,0.09863 -0.2960712,0.06576 -0.5592418,0.131672 -0.8224108,0.197397 -0.2631722,0.09864 -0.5263571,0.197365 -0.7895277,0.296063 -0.2631707,0.09864 -0.5263413,0.230275 -0.7895119,0.361867 -0.2302844,0.164471 -0.4934534,0.296063 -0.7237379,0.46055 -0.2302685,0.164471 -0.4605529,0.361852 -0.6579352,0.559232 -0.230267,0.164503 -0.4605498,0.394778 -0.6579321,0.592142 -0.1973824,0.230291 -0.3947631,0.427672 -0.5592434,0.657931 -0.1644786,0.263169 -0.361861,0.49346 -0.4934534,0.756645 -0.1644803,0.230275 -0.3289589,0.493444 -0.460553,0.756597 -0.1316401,0.296095 -0.2631706,0.559264 -0.361861,0.855327 -0.098682,0.263169 -0.19738074,0.559248 -0.2960727,0.855327 -0.0657406,0.263153 -0.13164011,0.526338 -0.16447866,0.789491 0,0.03304 -0.0329418,0.06576 -0.0329418,0.09864 -0.0657406,0.296095 -0.0657406,0.690856 -0.0986824,0.888237 -0.0329418,0.230275 -0.0657406,0.42764 -0.0657406,0.657931 0,0.131672 0,0.296063 0.0329418,0.427655 0.0329418,0.230275 0.0657406,0.427656 0.13164011,0.625053 0.0657406,0.197349 0.1316401,0.394745 0.23026853,0.592126 v 0.03288 c 0.0986824,0.197397 0.23028452,0.394762 0.36186102,0.592142 0.1316401,0.197381 0.2631865,0.394762 0.4276652,0.592159 0.1644802,0.16447 0.3618626,0.361835 0.5592433,0.526322 0.1973824,0.197381 0.3947631,0.361867 0.6250316,0.526354 0.7895262,0.69084 0.9869085,0.921115 2.0067048,1.447453 0.1644771,0.09863 0.3289732,0.164487 0.5263555,0.263185 0.032958,0 0.065741,0.03288 0.098682,0.03288 0,0.06576 0,0.09864 0.032958,0.164503 0.032942,0.263185 0.098682,0.526338 0.1644787,0.789523 0.065741,0.296063 0.1644961,0.559248 0.2631865,0.789523 0.098682,0.197381 0.1644786,0.394745 0.2631706,0.592142 0.032942,0.06576 0.065741,0.131672 0.098682,0.164487 0.1316401,0.263153 0.2631707,0.493459 0.3947488,0.723718 0.1644946,0.230275 0.3289732,0.46055 0.4934519,0.690841 0.1644802,0.197365 0.3618626,0.42764 0.5592433,0.62502 0.1973823,0.197397 0.3947647,0.361868 0.6250491,0.559233 0,0 0.032958,0.03304 0.065741,0.03304 0.1973823,0.164502 0.3947631,0.328989 0.5921454,0.46055 0.2302686,0.164486 0.4605514,0.296063 0.723722,0.427671 0.2302844,0.131672 0.4934551,0.263169 0.7566241,0.361867 0.197382,0.09864 0.427651,0.164487 0.657935,0.230275 0.03296,0.03304 0.06574,0.03304 0.13164,0.06576 0.13164,0.03304 0.296057,0.06576 0.427649,0.09863 -0.09868,1.77641 -0.13164,3.454139 0.13164,4.046297 0.296057,0.65793 1.743517,-1.348771 3.190969,-3.651536 -0.197381,2.269871 -0.328965,4.934487 0,5.724026 0.361867,0.822401 2.335675,-1.743533 4.046297,-4.572651 23.323743,-5.395037 44.607937,10.724332 46.844898,33.488831 -0.427656,-3.552837 -4.802911,-5.526629 -6.809596,-5.033169 -0.98692,2.434341 -2.664648,5.559523 -5.362159,7.500436 0.230275,-2.171188 0.131672,-4.408164 -0.328973,-6.579352 -0.723734,3.026499 -2.138294,5.855634 -4.079207,8.289975 -3.125182,0.230275 -6.25038,-1.282983 -7.895214,-3.552838 -0.131672,-0.09863 -0.164487,-0.296079 -0.263169,-0.427655 -0.09863,-0.230307 -0.197381,-0.46055 -0.263185,-0.690841 -0.09863,-0.230275 -0.164471,-0.460549 -0.197381,-0.690824 -0.03288,-0.230291 -0.03288,-0.460566 -0.03288,-0.723719 0,-0.164503 0,-0.328973 0,-0.493444 0.03288,-0.230307 0.09864,-0.460582 0.164471,-0.690857 0.06576,-0.230274 0.131672,-0.460549 0.230291,-0.690824 0.131671,-0.230275 0.230259,-0.46055 0.394761,-0.690825 0.559248,-1.579062 0.559248,-2.862013 -0.46055,-3.618646 -0.19738,-0.131672 -0.394761,-0.230275 -0.625052,-0.328973 -0.131672,-0.03288 -0.296063,-0.09864 -0.42764,-0.131672 -0.09863,-0.03288 -0.164486,-0.06576 -0.263185,-0.09864 -0.230274,-0.06576 -0.460565,-0.131672 -0.690824,-0.164487 -0.230291,-0.06576 -0.46055,-0.09864 -0.690841,-0.09864 -0.230275,-0.03304 -0.49346,-0.06576 -0.723719,-0.06576 -0.164486,0 -0.328973,0.03288 -0.493459,0.03288 -0.263169,0 -0.493444,0.03304 -0.723719,0.09864 -0.230291,0.03304 -0.46055,0.06576 -0.690841,0.131672 -0.230259,0.06576 -0.46055,0.131672 -0.690824,0.230291 -0.230275,0.09863 -0.427656,0.19738 -0.657947,0.296079 -0.197365,0.09863 -0.394745,0.230259 -0.62502,0.328957 -7.664939,5.000296 -3.092288,16.711516 2.138278,20.099884 -1.973808,0.36186 -3.980493,0.78954 -4.539741,1.21718 -0.03288,0.0329 -0.06576,0.0657 -0.06576,0.0657 1.414559,0.85531 2.894907,1.57905 4.441043,2.20407 2.1054,0.69084 4.34236,1.31588 5.32928,1.57906 v 0.0329 c 2.73042,0.55925 5.493751,0.75663 8.28996,0.59216 14.573249,-1.0198 26.51476,-12.105999 28.685948,-26.712131 0.06576,0.296079 0.131672,0.559232 0.197381,0.855311 0.09864,0.592131 0.230259,1.217183 0.296047,1.84222 v 0.03304 c 0.06576,0.296063 0.09864,0.592126 0.131672,0.855295 v 0.131672 c 0.03304,0.296063 0.06576,0.592142 0.06576,0.855311 0.03288,0.361852 0.06576,0.723719 0.06576,1.085602 v 0.526339 c 0,0.164486 0.03288,0.361851 0.03288,0.526353 0,0.197381 -0.03288,0.394746 -0.03288,0.592127 v 0.46055 c 0,0.23029 -0.03304,0.427655 -0.03304,0.657946 0,0.131672 0,0.263169 -0.03288,0.427656 0,0.23029 -0.03288,0.460549 -0.03288,0.723718 -0.03304,0.09864 -0.03304,0.197381 -0.03304,0.296079 -0.03288,0.26317 -0.06576,0.49346 -0.09864,0.756629 0,0.09864 0,0.197381 -0.03288,0.296079 -0.03304,0.328958 -0.09864,0.625037 -0.131672,0.953994 v 0.03304 0.03288 c -0.06576,0.296079 -0.131672,0.625037 -0.197396,0.9211 v 0.09864 c -0.06576,0.296063 -0.131672,0.592142 -0.197381,0.888205 0,0.03304 -0.03288,0.09864 -0.03288,0.131672 -0.06576,0.296079 -0.131672,0.592158 -0.230275,0.888237 v 0.09864 c -0.09864,0.328957 -0.197381,0.625036 -0.263185,0.9211 -0.03288,0.03288 -0.03288,0.06576 -0.03288,0.06576 -0.09864,0.328973 -0.197365,0.657946 -0.296048,0.986904 -0.131672,0.328973 -0.23029,0.625036 -0.361867,0.954006 -0.131672,0.328976 -0.230291,0.657946 -0.361867,0.953996 -0.131672,0.32899 -0.263185,0.62505 -0.394762,0.95401 h -0.03304 c -0.131672,0.29606 -0.263185,0.62505 -0.427671,0.92113 -0.03288,0.0986 -0.06576,0.16447 -0.09864,0.23026 -0.03288,0.033 -0.03288,0.0657 -0.06576,0.0986 -2.138278,4.30945 -5.296386,8.09258 -9.243969,11.05329 -0.263169,0.16447 -0.526354,0.36185 -0.789523,0.55923 -0.06576,0.0658 -0.164486,0.0986 -0.230275,0.16447 -0.23029,0.16449 -0.460565,0.32898 -0.723718,0.49346 l 0.09863,0.19739 h 0.03288 c 0.460549,-0.0658 0.921099,-0.13168 1.381649,-0.19739 h 0.03288 c 0.855327,-0.13167 1.710639,-0.29606 2.56595,-0.46055 0.230275,-0.033 0.49346,-0.0986 0.723719,-0.16448 0.164486,-0.033 0.296079,-0.0658 0.460549,-0.0986 0.230291,-0.033 0.460566,-0.0986 0.690857,-0.13167 0.197365,-0.0658 0.394745,-0.0988 0.592126,-0.16449 3.289669,-0.78953 6.480655,-1.87512 9.540032,-3.15809 -5.230565,7.13857 -12.237558,12.89551 -20.428835,16.67862 3.783128,-0.26317 7.566241,-0.88821 11.217776,-1.9409 13.257371,-3.91472 24.409343,-12.82971 31.087367,-24.83701 -1.34876,7.59915 -4.375259,14.83641 -8.849212,21.15258 3.190986,-2.1054 6.118787,-4.53975 8.783422,-7.30307 7.36886,-7.69782 12.20468,-17.468119 13.8495,-27.962193 1.11849,5.197688 1.44747,10.559862 0.95402,15.856213 23.75142,-33.126977 1.97379,-67.471131 -7.13858,-76.517719 -0.033,-0.06576 -0.0658,-0.09863 -0.0658,-0.164471 -0.033,0.03288 -0.033,0.03288 -0.033,0.06576 0,-0.03288 0,-0.03288 -0.0329,-0.06576 0,0.394761 -0.0329,0.789507 -0.0658,1.184268 -0.0986,0.756629 -0.19738,1.480348 -0.32898,2.204083 -0.16447,0.723734 -0.36186,1.447437 -0.55924,2.171188 -0.23028,0.690809 -0.49343,1.414543 -0.78951,2.105384 -0.29608,0.657915 -0.62505,1.348755 -0.9869,2.006701 -0.36187,0.625037 -0.75663,1.282967 -1.18429,1.875094 -0.42765,0.625052 -0.8882,1.217194 -1.34877,1.776426 -0.49346,0.592143 -1.01978,1.118497 -1.54615,1.644851 -0.32896,0.296063 -0.62502,0.559232 -0.95401,0.822401 -0.26315,0.230291 -0.49343,0.427671 -0.75661,0.65793 -0.59215,0.46055 -1.18429,0.888222 -1.842203,1.282983 -0.625052,0.394746 -1.282967,0.789507 -1.940897,1.118496 -0.690841,0.328958 -1.381682,0.625021 -2.072506,0.9211 -0.690825,0.263169 -1.41456,0.493444 -2.138294,0.690824 -0.723719,0.197381 -1.480348,0.361868 -2.204083,0.493444 -0.756613,0.131672 -1.513241,0.197381 -2.23696,0.263185 -0.526354,0.03288 -1.052692,0.06576 -1.579046,0.06576 -0.756629,0 -1.513242,-0.06576 -2.236977,-0.131672 -0.756613,-0.06576 -1.51324,-0.164503 -2.236974,-0.328989 -0.756613,-0.131672 -1.480348,-0.328973 -2.204083,-0.559232 h -0.03288 c 0.723735,-0.06576 1.447469,-0.131672 2.171204,-0.263185 0.756613,-0.131672 1.48033,-0.296063 2.204065,-0.49346 0.723719,-0.197365 1.447453,-0.427656 2.138278,-0.690825 0.723719,-0.263169 1.414559,-0.592126 2.072506,-0.921115 0.690824,-0.328973 1.315861,-0.690825 1.973791,-1.085586 0.625037,-0.427656 1.250073,-0.855296 1.842215,-1.315861 0.592143,-0.46055 1.151375,-0.953994 1.677745,-1.480348 0.559232,-0.49346 1.052676,-1.052692 1.546135,-1.61194 0.493444,-0.592126 0.953994,-1.184269 1.381666,-1.776427 0.06576,-0.09864 0.131672,-0.230259 0.19738,-0.328957 0.328958,-0.526354 0.657915,-1.052692 0.953994,-1.579046 0.361867,-0.657931 0.690841,-1.315877 0.986904,-2.006686 0.29608,-0.69084 0.55925,-1.381681 0.78952,-2.1054 0.23028,-0.69084 0.39477,-1.414559 0.55925,-2.138278 0.13167,-0.756629 0.26317,-1.480363 0.32896,-2.204082 0.0658,-0.756629 0.13167,-1.513258 0.13167,-2.236977 0,-0.526354 -0.033,-1.052692 -0.0657,-1.57903 -0.0658,-0.756628 -0.16449,-1.480363 -0.26317,-2.204082 -0.13168,-0.756629 -0.29607,-1.480348 -0.49346,-2.204085 -0.23026,-0.69082 -0.46055,-1.414555 -0.72372,-2.105373 C 99.740301,15.275641 99.411344,14.58481 99.082371,13.926872 98.720573,13.268915 98.358722,12.610983 97.96396,11.985953 97.536305,11.360921 97.108633,10.768779 96.648083,10.176629 96.154639,9.6173851 95.661195,9.0581434 95.134826,8.4989016 94.871672,8.2357326 94.575593,7.9396583 94.279514,7.6764909 92.799183,6.525099 91.253031,5.4395017 89.706895,4.4526075 89.47662,4.3209674 89.279239,4.2223278 89.048949,4.1236327 87.963362,3.4328112 86.943564,3.0709359 85.923767,2.7419786 Z"
     fill="#e0234e"
     fill-rule="evenodd"
     id="path106"
     style="stroke-width:0.509082" />
</svg>
