<svg
   width="800px"
   height="800px"
   viewBox="0 0 16 16"
   fill="none"
   version="1.1"
   id="svg4"
   xmlns="http://www.w3.org/2000/svg">
  <defs
     id="defs8" />
  <path
     fill="#0a66c2"
     d="M 13.628503,13.628502 H 11.263909 V 9.9246787 c 0,-0.8830658 -0.01596,-2.0201458 -1.230175,-2.0201458 -1.231504,0 -1.4203524,0.9628608 -1.4203524,1.9549799 V 13.628502 H 6.2487868 V 6.012059 h 2.2701706 v 1.0413261 h 0.031918 C 9.0136869,6.2634136 9.875474,5.7899627 10.790458,5.8232107 c 2.396512,0 2.839375,1.5759531 2.839375,3.6280171 l -0.0014,4.1759432 z M 3.5809706,4.970733 A 1.3791253,1.3791253 0 0 1 2.208495,3.5995872 c 0,-0.7527337 0.6197419,-1.3724757 1.3724756,-1.3724757 0.7527339,0 1.3711458,0.619742 1.3724758,1.3724757 0,0.7527339 -0.6197419,1.3724758 -1.3724758,1.3724758 z M 4.763268,13.628502 H 2.3960134 V 6.012059 H 4.763268 Z M 14.805481,0.03008649 H 1.2070664 A 1.1703282,1.1703282 0 0 0 0.03008878,1.1817958 V 14.837397 A 1.1703282,1.1703282 0 0 0 1.2070664,15.989106 H 14.806811 a 1.172988,1.172988 0 0 0 1.182298,-1.151709 V 1.1804658 A 1.1703282,1.1703282 0 0 0 14.806811,0.03141641 Z"
     id="path2"
     style="stroke-width:1.32992" />
</svg>
